# xmcd CD database file
#
# Track frame offsets:
#	187
#	23807
#	49752
#
# Disc length: 897 seconds
#
# Revision: 2
# Processed by: cddbd v1.5.1PL0 Copyright (c) Steve Scherf et al.
# Submitted via: CDex 1.51
#
DISCID=1c037f03
DTITLE=HELLOWEEN - Number One
DYEAR=1992
DGENRE=Metal
TTITLE0=Number One
TTITLE1=Les Hambourgeois Walkways
TTITLE2=You Run With The Pack
EXTD=YEAR: 1992
EXTT0=
EXTT1=
EXTT2=
PLAYORDER=
